<svg width="231" height="443" viewBox="0 0 231 443" fill="none" xmlns="http://www.w3.org/2000/svg">
<path d="M231 105.273H228.455V38.5929C228.455 28.3574 224.202 18.5412 216.634 11.3036C209.065 4.06604 198.799 9.94026e-06 188.096 1.23044e-10H40.359C35.059 -1.27967e-05 29.8109 0.998211 24.9143 2.93767C20.0177 4.87713 15.5686 7.71984 11.8209 11.3035C8.07323 14.8872 5.10041 19.1416 3.07218 23.8239C1.04394 28.5062 1.2353e-05 33.5247 0 38.5927V404.407C-8.31601e-06 414.643 4.25208 424.459 11.8208 431.696C19.3896 438.934 29.655 443 40.3589 443H188.095C193.395 443 198.644 442.002 203.54 440.062C208.437 438.123 212.886 435.28 216.634 431.697C220.381 428.113 223.354 423.858 225.382 419.176C227.411 414.494 228.454 409.475 228.455 404.407V152.738H231L231 105.273Z" fill="#3F3D56"/>
<path d="M189.724 10.0406H170.439C171.326 12.1197 171.665 14.3754 171.425 16.6091C171.185 18.8428 170.375 20.9859 169.065 22.8495C167.756 24.7132 165.987 26.2402 163.914 27.2961C161.842 28.352 159.53 28.9044 157.182 28.9046H72.5453C70.1971 28.9044 67.8851 28.352 65.8127 27.2961C63.7404 26.2402 61.9714 24.7132 60.6616 22.8495C59.3519 20.9859 58.5415 18.8428 58.3019 16.6091C58.0622 14.3754 58.4008 12.1197 59.2876 10.0406H41.2759C33.2823 10.0406 25.6162 13.077 19.9639 18.4819C14.3117 23.8869 11.1362 31.2175 11.1362 38.8612V404.139C11.1362 407.924 11.9158 411.671 13.4305 415.168C14.9451 418.665 17.1652 421.842 19.9639 424.518C22.7626 427.194 26.0852 429.317 29.7419 430.766C33.3986 432.214 37.3178 432.96 41.2758 432.96H189.724C193.682 432.96 197.601 432.214 201.258 430.766C204.914 429.317 208.237 427.194 211.036 424.518C213.834 421.842 216.055 418.665 217.569 415.168C219.084 411.671 219.863 407.924 219.863 404.139V38.8613C219.863 35.0765 219.084 31.3287 217.569 27.832C216.055 24.3354 213.834 21.1582 211.036 18.4819C208.237 15.8057 204.914 13.6828 201.258 12.2344C197.601 10.786 193.682 10.0406 189.724 10.0406Z" fill="white"/>
<path d="M184.033 163.383H46.9671C46.051 163.382 45.1727 163.033 44.5249 162.414C43.8771 161.795 43.5127 160.955 43.5117 160.079V82.98C43.5127 82.104 43.8771 81.2641 44.5249 80.6446C45.1727 80.0252 46.051 79.6767 46.9671 79.6758H184.033C184.949 79.6767 185.827 80.0252 186.475 80.6446C187.123 81.2641 187.487 82.104 187.488 82.98V160.079C187.487 160.955 187.123 161.795 186.475 162.414C185.827 163.033 184.949 163.382 184.033 163.383Z" fill="white"/>
<path d="M184.033 164.507H46.9672C45.7393 164.506 44.5622 164.039 43.6939 163.209C42.8257 162.378 42.3373 161.253 42.3359 160.079V82.9802C42.3373 81.8061 42.8257 80.6804 43.6939 79.8501C44.5622 79.0199 45.7393 78.5529 46.9672 78.5515H184.033C185.261 78.5528 186.438 79.0199 187.306 79.8501C188.174 80.6804 188.663 81.8061 188.664 82.9802V160.079C188.663 161.253 188.174 162.378 187.306 163.209C186.438 164.039 185.261 164.506 184.033 164.507ZM46.9672 80.8003C46.3628 80.801 45.7834 81.0309 45.356 81.4396C44.9287 81.8482 44.6883 82.4023 44.6876 82.9803V160.079C44.6883 160.657 44.9287 161.211 45.356 161.619C45.7834 162.028 46.3628 162.258 46.9672 162.259H184.033C184.637 162.258 185.217 162.028 185.644 161.619C186.071 161.211 186.312 160.657 186.312 160.079V82.9802C186.312 82.4023 186.071 81.8482 185.644 81.4395C185.217 81.0308 184.637 80.8009 184.033 80.8003L46.9672 80.8003Z" fill="#CBCBCB"/>
<path d="M175.595 399.418C172.222 399.418 168.926 398.461 166.122 396.67C163.318 394.878 161.132 392.332 159.842 389.352C158.551 386.373 158.213 383.095 158.871 379.932C159.529 376.769 161.153 373.864 163.538 371.583C165.923 369.303 168.961 367.75 172.268 367.121C175.576 366.492 179.004 366.815 182.12 368.049C185.236 369.283 187.899 371.373 189.772 374.054C191.646 376.735 192.646 379.888 192.646 383.113C192.641 387.435 190.843 391.58 187.646 394.637C184.45 397.693 180.116 399.413 175.595 399.418ZM175.595 368.062C172.482 368.062 169.439 368.945 166.85 370.598C164.262 372.252 162.245 374.603 161.053 377.353C159.862 380.103 159.55 383.129 160.158 386.049C160.765 388.968 162.264 391.65 164.465 393.755C166.667 395.86 169.471 397.293 172.524 397.874C175.577 398.455 178.742 398.157 181.618 397.018C184.494 395.879 186.952 393.95 188.682 391.474C190.411 388.999 191.334 386.089 191.334 383.113C191.33 379.122 189.67 375.297 186.719 372.475C183.768 369.654 179.768 368.066 175.595 368.062Z" fill="#CBCBCB"/>
<path d="M168.23 388.602C168.11 388.602 167.993 388.565 167.898 388.495C167.803 388.425 167.734 388.327 167.703 388.216C167.672 388.105 167.68 387.987 167.726 387.881C167.772 387.775 167.853 387.687 167.957 387.629L176.138 383.113L167.957 378.596C167.832 378.527 167.74 378.413 167.703 378.28C167.665 378.146 167.685 378.004 167.757 377.884C167.829 377.764 167.949 377.677 168.088 377.641C168.228 377.605 168.377 377.624 168.502 377.693L177.501 382.661C177.584 382.707 177.653 382.773 177.701 382.852C177.748 382.931 177.774 383.021 177.774 383.113C177.774 383.204 177.748 383.294 177.701 383.374C177.653 383.453 177.584 383.519 177.501 383.564L168.502 388.533C168.42 388.578 168.326 388.602 168.23 388.602Z" fill="#CBCBCB"/>
<path d="M180.296 390.414C180.151 390.414 180.013 390.359 179.91 390.261C179.808 390.164 179.751 390.031 179.751 389.893V376.333C179.751 376.195 179.809 376.063 179.911 375.966C180.013 375.868 180.152 375.814 180.296 375.814C180.44 375.814 180.579 375.868 180.681 375.966C180.783 376.063 180.841 376.195 180.841 376.333V389.893C180.841 390.031 180.784 390.164 180.682 390.261C180.579 390.359 180.441 390.414 180.296 390.414Z" fill="#CBCBCB"/>
<path d="M80.5019 196.22C79.8225 196.22 79.1709 196.478 78.6905 196.938C78.2101 197.397 77.9402 198.02 77.9402 198.67C77.9402 199.32 78.2101 199.943 78.6905 200.402C79.1709 200.862 79.8225 201.12 80.5019 201.12H150.498C151.177 201.12 151.829 200.862 152.309 200.402C152.79 199.943 153.06 199.32 153.06 198.67C153.06 198.02 152.79 197.397 152.309 196.938C151.829 196.478 151.177 196.22 150.498 196.22H80.5019Z" fill="#CCCCCC"/>
<path d="M40.9155 229.952C40.2361 229.952 39.5845 230.21 39.1041 230.669C38.6237 231.129 38.3538 231.752 38.3538 232.401C38.3538 233.051 38.6237 233.674 39.1041 234.134C39.5845 234.593 40.2361 234.851 40.9155 234.851H190.084C190.764 234.851 191.415 234.593 191.896 234.134C192.376 233.674 192.646 233.051 192.646 232.401C192.646 231.752 192.376 231.129 191.896 230.669C191.415 230.21 190.764 229.952 190.084 229.952H40.9155Z" fill="#CCCCCC"/>
<path d="M40.9155 249.441C40.2361 249.441 39.5845 249.699 39.1041 250.159C38.6237 250.618 38.3538 251.241 38.3538 251.891C38.3538 252.54 38.6237 253.164 39.1041 253.623C39.5845 254.082 40.2361 254.34 40.9155 254.34H190.084C190.764 254.34 191.415 254.082 191.896 253.623C192.376 253.164 192.646 252.54 192.646 251.891C192.646 251.241 192.376 250.618 191.896 250.159C191.415 249.699 190.764 249.441 190.084 249.441H40.9155Z" fill="#CCCCCC"/>
<path d="M40.9155 268.93C40.2361 268.93 39.5845 269.188 39.1041 269.648C38.6237 270.107 38.3538 270.73 38.3538 271.38C38.3538 272.03 38.6237 272.653 39.1041 273.112C39.5845 273.572 40.2361 273.83 40.9155 273.83H190.084C190.764 273.83 191.415 273.572 191.896 273.112C192.376 272.653 192.646 272.03 192.646 271.38C192.646 270.73 192.376 270.107 191.896 269.648C191.415 269.188 190.764 268.93 190.084 268.93H40.9155Z" fill="#CCCCCC"/>
<path d="M40.9155 288.42C40.2361 288.42 39.5845 288.678 39.1041 289.137C38.6237 289.597 38.3538 290.22 38.3538 290.869C38.3538 291.519 38.6237 292.142 39.1041 292.601C39.5845 293.061 40.2361 293.319 40.9155 293.319H190.084C190.764 293.319 191.415 293.061 191.896 292.601C192.376 292.142 192.646 291.519 192.646 290.869C192.646 290.22 192.376 289.597 191.896 289.137C191.415 288.678 190.764 288.42 190.084 288.42H40.9155Z" fill="#CCCCCC"/>
<path d="M40.9155 307.909C40.5791 307.909 40.246 307.972 39.9352 308.095C39.6244 308.218 39.342 308.399 39.1041 308.626C38.8662 308.854 38.6775 309.124 38.5488 309.421C38.42 309.718 38.3538 310.037 38.3538 310.358C38.3538 310.68 38.42 310.999 38.5488 311.296C38.6775 311.593 38.8662 311.863 39.1041 312.091C39.342 312.318 39.6244 312.499 39.9352 312.622C40.246 312.745 40.5791 312.808 40.9155 312.808H190.084C190.764 312.808 191.415 312.55 191.896 312.091C192.376 311.631 192.646 311.008 192.646 310.358C192.646 309.709 192.376 309.086 191.896 308.626C191.415 308.167 190.764 307.909 190.084 307.909H40.9155Z" fill="#CCCCCC"/>
<path d="M40.9155 327.398C40.2361 327.398 39.5845 327.656 39.1041 328.116C38.6237 328.575 38.3538 329.198 38.3538 329.848C38.3538 330.498 38.6237 331.121 39.1041 331.58C39.5845 332.039 40.2361 332.297 40.9155 332.297H190.084C190.764 332.297 191.415 332.039 191.896 331.58C192.376 331.121 192.646 330.498 192.646 329.848C192.646 329.198 192.376 328.575 191.896 328.116C191.415 327.656 190.764 327.398 190.084 327.398H40.9155Z" fill="#CCCCCC"/>
<path d="M147.498 105.457C147.132 104.093 146.386 102.843 145.336 101.833C144.286 100.824 142.968 100.09 141.517 99.7075C136.213 98.5 115 98.5 115 98.5C115 98.5 93.7866 98.5 88.4833 99.8225C87.0318 100.205 85.7144 100.939 84.6641 101.948C83.6138 102.958 82.8679 104.208 82.5016 105.572C81.5311 110.591 81.0563 115.682 81.0833 120.781C81.0487 125.919 81.5235 131.049 82.5016 136.105C82.9054 137.427 83.6681 138.63 84.7159 139.597C85.7637 140.564 87.0613 141.262 88.4833 141.625C93.7866 142.947 115 142.947 115 142.947C115 142.947 136.213 142.947 141.517 141.625C142.968 141.242 144.286 140.509 145.336 139.499C146.386 138.49 147.132 137.239 147.498 135.875C148.461 130.894 148.936 125.842 148.917 120.781C148.951 115.643 148.476 110.514 147.498 105.457Z" fill="#F20000" stroke="#3F3D56" stroke-width="2" stroke-linecap="round" stroke-linejoin="round"/>
<path d="M108.062 130.182L125.792 120.781L108.062 111.38V130.182Z" fill="#F8F8F8"/>
</svg>
