<svg width="565" height="432" viewBox="0 0 565 432" fill="none" xmlns="http://www.w3.org/2000/svg">
<g clip-path="url(#clip0)">
<path d="M389.669 0.257294H0.167236V291.612H389.669V0.257294Z" fill="#E6E6E6"/>
<path d="M378.531 36.801H11.304V274.376H378.531V36.801Z" fill="white"/>
<path d="M389.502 0H0V19.3269H389.502V0Z" fill="#66D06D"/>
<path d="M12.2967 13.463C13.9905 13.463 15.3636 11.8593 15.3636 9.88093C15.3636 7.9026 13.9905 6.29884 12.2967 6.29884C10.6029 6.29884 9.22974 7.9026 9.22974 9.88093C9.22974 11.8593 10.6029 13.463 12.2967 13.463Z" fill="white"/>
<path d="M23.938 13.463C25.6319 13.463 27.005 11.8593 27.005 9.88093C27.005 7.9026 25.6319 6.29884 23.938 6.29884C22.2442 6.29884 20.8711 7.9026 20.8711 9.88093C20.8711 11.8593 22.2442 13.463 23.938 13.463Z" fill="white"/>
<path d="M35.5794 13.463C37.2732 13.463 38.6463 11.8593 38.6463 9.88093C38.6463 7.9026 37.2732 6.29884 35.5794 6.29884C33.8856 6.29884 32.5125 7.9026 32.5125 9.88093C32.5125 11.8593 33.8856 13.463 35.5794 13.463Z" fill="white"/>
<path d="M250.371 73.2759H42.5479V209.812H250.371V73.2759Z" fill="#66D06D"/>
<path d="M358.512 73.2759H279.37V125.271H358.512V73.2759Z" fill="#E6E6E6"/>
<path d="M358.512 141.72H279.37V193.715H358.512V141.72Z" fill="#E6E6E6"/>
<path d="M358.512 210.165H279.37V262.159H358.512V210.165Z" fill="#E6E6E6"/>
<path d="M185.728 232.744H42.5479V244.034H185.728V232.744Z" fill="#E6E6E6"/>
<path d="M173.646 141.544L128.335 110.99V172.097L173.646 141.544L128.335 110.99V172.097L173.646 141.544Z" fill="white"/>
<path d="M465.312 402.099L467.173 412.969L457.867 415.144L459.262 401.556L465.312 402.099Z" fill="#FFB8B8"/>
<path d="M503.408 400.122L501.3 412.431L492.63 412.675L495.398 397.66L503.408 400.122Z" fill="#FFB8B8"/>
<path d="M517.228 273.67L519.645 292.721C519.645 292.721 517.228 335.058 516.624 337.175C516.02 339.292 514.208 349.876 514.208 349.876L503.937 400.68C503.937 400.68 495.046 402.091 493.234 396.446L493.667 366.105L493.063 331.53L485.813 292.016L473.126 345.642C473.126 345.642 472.522 363.282 470.71 369.633C468.897 375.983 466.481 403.502 466.481 403.502C466.481 403.502 458.798 405.619 458.194 403.502C457.59 401.385 454.398 351.287 454.398 343.525C454.398 335.764 450.847 261.341 450.847 261.341L517.228 273.67Z" fill="#2F2E41"/>
<path d="M495.414 411.729C496.41 411.968 497.437 411.968 498.433 411.729C499.565 411.288 498.433 408.644 498.433 408.644H502.583C502.583 408.644 507.111 420.542 508.997 421.424C510.884 422.305 516.921 432 509.752 432C505.329 431.934 501.012 430.406 497.301 427.593C497.301 427.593 496.546 423.627 493.151 423.186C489.755 422.746 487.491 417.898 487.491 417.898L491.177 409.951C491.281 409.727 491.436 409.539 491.624 409.409C491.812 409.278 492.027 409.209 492.245 409.209C492.464 409.208 492.679 409.276 492.868 409.406C493.056 409.536 493.211 409.722 493.317 409.946C493.829 411.003 494.541 411.933 495.414 411.729Z" fill="#2F2E41"/>
<path d="M463.836 410.364C463.836 410.364 462.994 412.329 462.153 411.346C461.45 410.303 460.882 409.144 460.47 407.906C460.47 407.906 457.945 406.432 457.524 407.906C457.103 409.381 455.42 417.244 454.579 418.227C453.737 419.21 444.901 429.531 453.737 431.496C462.574 433.462 464.257 429.039 464.257 429.039C464.257 429.039 462.994 426.582 465.519 425.599C468.044 424.616 468.465 421.176 468.465 421.176L467.196 410.068C467.169 409.831 467.081 409.609 466.945 409.431C466.809 409.252 466.631 409.125 466.433 409.065C466.235 409.005 466.026 409.016 465.833 409.095C465.64 409.175 465.472 409.319 465.349 409.511C464.862 410.254 464.318 410.739 463.836 410.364Z" fill="#2F2E41"/>
<path d="M531.123 224.277L532.936 260.969C532.936 260.969 541.394 284.254 529.915 283.548C518.437 282.843 525.686 260.263 525.686 260.263L514.448 227.516L531.123 224.277Z" fill="#FFB8B8"/>
<path d="M438.086 213.693L436.274 250.384C436.274 250.384 427.816 273.67 439.295 272.964C450.773 272.258 443.524 249.679 443.524 249.679L454.762 216.932L438.086 213.693Z" fill="#FFB8B8"/>
<path d="M486.417 133.958C495.092 133.958 502.125 125.745 502.125 115.613C502.125 105.48 495.092 97.2667 486.417 97.2667C477.742 97.2667 470.71 105.48 470.71 115.613C470.71 125.745 477.742 133.958 486.417 133.958Z" fill="#FFB8B8"/>
<path d="M498.802 123.021C498.802 123.021 494.573 142.779 503.031 147.718C511.489 152.657 476.449 159.713 474.033 147.718L475.241 142.073C475.241 142.073 480.074 135.017 478.866 128.666L498.802 123.021Z" fill="#FFB8B8"/>
<path d="M489.438 148.071C489.438 148.071 479.014 149.208 475.768 141.23C475.768 141.23 451.377 143.131 445.94 169.239C452.25 169.45 460.078 253.316 449.736 261.674C441.341 268.459 464.222 278.91 496.084 279.315L520.249 277.903C515.743 273.37 504.961 214.365 511.791 215.104C511.791 215.104 529.915 181.94 528.103 177.001C526.29 172.062 523.388 152.586 500.069 144.684C500.07 144.684 499.708 148.776 489.438 148.071Z" fill="#E6E6E6"/>
<path d="M520.249 165.005L528.103 177.001C528.103 177.001 535.957 227.099 533.54 227.805C531.124 228.51 516.624 234.155 514.208 232.039C511.791 229.922 500.917 188.291 500.917 188.291L520.249 165.005Z" fill="#E6E6E6"/>
<path d="M456.211 161.477L445.94 169.239C445.94 169.239 430.837 218.632 435.066 220.749C439.295 222.866 462.856 221.454 462.856 221.454L456.211 161.477Z" fill="#E6E6E6"/>
<path d="M503.587 99.1944C503.587 99.1944 498.146 85.4263 487.718 88.6036C477.29 91.7808 471.396 96.5467 470.943 101.313C470.489 106.078 471.17 113.227 471.17 113.227C471.17 113.227 472.303 103.431 479.557 105.549C486.811 107.667 498.146 106.078 498.146 106.078L499.96 125.142C499.96 125.142 502 121.7 504.267 123.818C506.534 125.936 510.841 103.431 503.587 99.1944Z" fill="#2F2E41"/>
<path d="M537.084 432.435H381.375V430.949H537.314L537.084 432.435Z" fill="#3F3D56"/>
</g>
<defs>
<clipPath id="clip0">
<rect width="565" height="432" fill="white"/>
</clipPath>
</defs>
</svg>
