<svg width="29" height="24" viewBox="0 0 29 24" fill="none" xmlns="http://www.w3.org/2000/svg">
<path fill-rule="evenodd" clip-rule="evenodd" d="M14.5 0C6.48875 0 0 5.50583 0 12.3035C0 17.7478 4.15063 22.3463 9.91438 23.9765C10.6394 24.0842 10.9113 23.715 10.9113 23.3921C10.9113 23.0999 10.8931 22.131 10.8931 21.1005C7.25 21.6696 6.3075 20.347 6.0175 19.6549C5.85438 19.3012 5.1475 18.2092 4.53125 17.917C4.02375 17.6863 3.29875 17.1173 4.51312 17.1019C5.655 17.0865 6.47062 17.9939 6.7425 18.363C8.0475 20.2239 10.1319 19.701 10.9656 19.3781C11.0925 18.5783 11.4731 18.04 11.89 17.7325C8.66375 17.4249 5.2925 16.3637 5.2925 11.6576C5.2925 10.3196 5.85438 9.21227 6.77875 8.35102C6.63375 8.04343 6.12625 6.78232 6.92375 5.09058C6.92375 5.09058 8.13812 4.76762 10.9113 6.3517C12.0712 6.07487 13.3038 5.93645 14.5363 5.93645C15.7688 5.93645 17.0012 6.07487 18.1613 6.3517C20.9344 4.75224 22.1488 5.09058 22.1488 5.09058C22.9463 6.78232 22.4388 8.04343 22.2938 8.35102C23.2181 9.21227 23.78 10.3042 23.78 11.6576C23.78 16.3791 20.3906 17.4249 17.1644 17.7325C17.69 18.1169 18.1431 18.8552 18.1431 20.0086C18.1431 21.6542 18.125 22.9768 18.125 23.3921C18.125 23.715 18.3969 24.0995 19.1219 23.9765C22.0003 23.1519 24.5016 21.5821 26.2736 19.4881C28.0456 17.3942 28.9991 14.8814 29 12.3035C29 5.50583 22.5113 0 14.5 0Z" fill="#FFFCFC"/>
</svg>
