<svg width="494" height="480" viewBox="0 0 494 480" fill="none" xmlns="http://www.w3.org/2000/svg">
<path d="M468.149 447.278C468.149 465.349 363.351 480 234.074 480C104.797 480 0 465.349 0 447.278C0 434.485 52.5308 423.402 129.088 418.026C160.658 415.802 196.328 414.556 234.074 414.556C249.591 414.556 264.753 414.767 279.417 415.169C386.993 418.124 468.149 431.375 468.149 447.278Z" fill="#3F3D56"/>
<path opacity="0.1" d="M203.871 453.963C253.496 453.963 293.726 449.395 293.726 443.76C293.726 438.124 253.496 433.556 203.871 433.556C154.246 433.556 114.017 438.124 114.017 443.76C114.017 449.395 154.246 453.963 203.871 453.963Z" fill="black"/>
<path d="M203.494 451.149C250.408 451.149 288.44 413.342 288.44 366.705C288.44 320.068 250.408 282.262 203.494 282.262C156.579 282.262 118.547 320.068 118.547 366.705C118.547 413.342 156.579 451.149 203.494 451.149Z" fill="#3F3D56"/>
<path d="M230.299 416.667H177.443V461.704H230.299V416.667Z" fill="#66D06D"/>
<path d="M299.389 427.575L296.368 443.056L316 445.871L328.837 438.834L328.082 427.575H299.389Z" fill="#575A89"/>
<path d="M200.473 136.949C200.473 136.949 198.963 153.134 195.188 153.837C191.412 154.541 203.494 182.689 203.494 182.689H221.616L235.962 179.17L229.166 163.689C229.166 163.689 220.105 152.43 226.901 143.282C233.697 134.134 200.473 136.949 200.473 136.949Z" fill="#A0616A"/>
<path opacity="0.1" d="M200.473 136.949C200.473 136.949 198.963 153.134 195.188 153.837C191.412 154.541 203.494 182.689 203.494 182.689H221.616L235.962 179.17L229.166 163.689C229.166 163.689 220.105 152.43 226.901 143.282C233.697 134.134 200.473 136.949 200.473 136.949Z" fill="black"/>
<path d="M162.719 260.799C162.719 260.799 143.087 295.984 158.944 303.021C174.801 310.058 178.576 309.354 178.576 311.465C178.576 313.576 175.556 312.872 177.066 316.391C178.576 319.909 174.046 333.983 178.576 342.428C183.106 350.872 181.596 357.205 181.596 357.205C181.596 357.205 181.596 357.909 183.106 360.724C184.617 363.538 185.372 365.65 184.617 367.057C183.862 368.464 179.331 377.612 183.862 379.723C188.392 381.834 211.799 383.242 214.065 379.723C216.33 376.205 211.799 374.094 214.065 371.983C216.33 369.872 217.84 369.168 216.33 367.761C214.82 366.353 213.31 348.761 213.31 348.761C213.31 348.761 217.085 328.354 215.575 325.539C214.065 322.724 211.799 319.909 213.31 317.798C214.82 315.687 216.33 316.391 217.085 313.576C217.84 310.761 219.35 304.428 219.35 304.428L227.656 303.724L247.288 307.243C247.288 307.243 269.185 329.761 293.348 336.798C293.348 336.798 300.144 343.131 302.409 343.131C304.674 343.131 304.674 343.131 303.919 344.539C303.164 345.946 300.899 345.946 302.409 347.353C303.919 348.761 306.184 346.65 304.674 348.761C303.164 350.872 301.654 350.872 303.164 352.279C304.674 353.687 302.409 361.427 302.409 362.131C302.409 362.835 295.613 428.982 297.878 430.389C300.144 431.797 331.857 436.019 334.122 430.389C336.387 424.76 332.612 417.723 332.612 417.723C332.612 417.723 343.938 333.28 340.918 327.65C337.898 322.02 327.326 296.687 270.696 280.502C270.696 280.502 254.839 277.688 254.839 275.577C254.839 273.465 253.329 260.095 250.308 259.392C247.288 258.688 229.921 257.984 229.921 257.984L208.024 264.317L177.821 259.392L162.719 260.799Z" fill="#2F2E41"/>
<path d="M189.147 379.02L185.372 391.686C185.372 391.686 182.352 412.093 186.127 417.019C189.092 420.889 194.387 425.626 204.207 426.457C206.959 426.693 209.715 426.046 212.018 424.623C214.322 423.2 216.036 421.088 216.876 418.634C216.989 418.34 217.059 418.034 217.085 417.723C217.085 416.316 214.82 399.427 214.82 399.427L211.045 381.835L210.289 376.909L189.147 379.02Z" fill="#2F2E41"/>
<path d="M299.389 439.537C299.389 439.537 295.613 436.019 294.858 439.537C294.103 443.056 291.083 457.834 296.368 458.537C301.654 459.241 352.244 466.278 357.53 463.463C362.815 460.648 372.631 456.426 366.591 454.315C360.55 452.204 343.183 445.871 343.183 445.871C343.183 445.871 333.367 433.908 331.857 433.204C330.347 432.501 322.041 433.908 318.266 436.723C314.49 439.537 299.389 439.537 299.389 439.537Z" fill="#2F2E41"/>
<path d="M218.595 151.726C231.523 151.726 242.003 141.959 242.003 129.912C242.003 117.864 231.523 108.097 218.595 108.097C205.668 108.097 195.188 117.864 195.188 129.912C195.188 141.959 205.668 151.726 218.595 151.726Z" fill="#A0616A"/>
<path d="M216.33 179.17L207.269 170.022L197.225 151.726C197.225 151.726 189.902 149.615 188.392 153.134C186.882 156.652 159.699 167.911 159.699 167.911C159.699 167.911 166.495 227.022 163.475 232.651C160.454 238.281 155.169 260.799 159.699 262.91C164.23 265.021 185.372 262.91 192.168 265.725C198.963 268.54 218.595 268.54 223.881 265.021C229.166 261.503 230.677 258.688 235.962 260.799C240.462 262.596 250.981 201.153 254.01 182.843C254.265 181.305 254.053 179.731 253.398 178.3C252.743 176.869 251.671 175.637 250.304 174.744C243.529 170.315 231.326 162.683 229.166 163.689C226.146 165.096 216.33 179.17 216.33 179.17Z" fill="#353685"/>
<path d="M248.798 176.356C250.571 176.769 252.166 177.677 253.369 178.96C254.572 180.243 255.325 181.837 255.527 183.53L261.635 234.762C261.635 234.762 246.533 265.021 238.982 244.614C231.432 224.207 248.798 176.356 248.798 176.356Z" fill="#353685"/>
<path d="M247.288 239.688L263.9 235.466C263.9 235.466 266.92 255.169 269.94 255.169C272.961 255.169 259.369 266.429 252.574 265.021C245.778 263.614 235.962 258.688 235.207 255.169C234.452 251.651 242.003 236.873 242.003 236.873L247.288 239.688Z" fill="#353685"/>
<path d="M200.925 139.322C202.517 136.051 202.24 132.236 203.556 128.861C204.261 127.053 205.404 125.422 206.897 124.095C208.39 122.767 210.192 121.779 212.163 121.208C214.133 120.637 216.219 120.499 218.256 120.803C220.294 121.107 222.228 121.847 223.908 122.963C225.601 124.088 227.298 125.668 229.364 125.454C231.589 125.222 233.573 122.909 235.619 123.757C237.886 124.696 237.274 128.483 239.571 129.358C240.78 129.818 242.209 129.11 242.906 128.08C243.516 126.999 243.849 125.8 243.877 124.579C244.194 121.577 244.481 118.401 243.084 115.68C242.497 114.758 241.985 113.796 241.552 112.802C241.308 111.874 241.21 110.918 241.261 109.963C241.249 106.436 240.972 102.756 239.067 99.7076C236.953 96.3249 233.046 94.1618 228.969 93.218C224.893 92.2741 220.622 92.4188 216.437 92.749C209.518 93.2949 202.302 94.4651 196.851 98.4736C196.11 98.978 195.472 99.6024 194.968 100.317C194.49 101.166 194.152 102.077 193.965 103.02C192.787 107.493 191.02 111.813 188.704 115.882C187.591 117.607 186.68 119.439 185.989 121.346C185.411 123.285 185.45 125.493 186.661 127.159C187.646 128.516 189.221 129.239 190.458 130.347C191.684 131.446 192.258 133.559 193.616 134.391C194.802 135.118 196.222 134.605 197.432 135.375C198.984 136.363 199.096 138.53 200.925 139.322Z" fill="#2F2E41"/>
<path d="M220.105 189.726L222.371 185.504C222.371 185.504 255.594 194.652 262.39 203.096C262.39 203.096 279.001 193.244 288.062 194.652L297.123 196.059L269.185 219.281L233.697 216.466L220.105 189.726Z" fill="#F2F2F2"/>
<path d="M218.595 185.504L187.637 225.614L232.187 246.021C232.187 246.021 236.351 248.132 239.555 246.021L269.185 233.355L297.123 196.059L269.185 209.429C269.185 209.429 266.165 203.8 260.124 206.614L218.595 185.504Z" fill="#66D06D"/>
<path d="M266.165 256.577L272.206 241.799C272.206 241.799 285.797 225.614 278.247 217.874C270.696 210.133 262.39 240.392 262.39 240.392L266.165 256.577Z" fill="#A0616A"/>
<path d="M196.47 254.219L209.651 244.26C209.651 244.26 230.121 236.614 227.756 226.388C225.392 216.161 201.917 238.453 201.917 238.453L196.47 254.219Z" fill="#A0616A"/>
<path opacity="0.1" d="M163.852 183.041H163.097C163.097 183.041 151.393 170.022 149.128 187.615C146.863 205.207 139.312 263.614 158.944 265.725C178.576 267.836 192.545 256.929 192.545 256.929C192.545 256.929 206.892 236.521 201.606 236.521C199.049 236.521 192.093 235.451 185.749 235.818C178.982 236.209 172.901 237.986 173.291 236.17C174.046 232.651 184.994 187.966 163.852 183.041Z" fill="black"/>
<path d="M162.719 169.319L159.699 167.911C159.699 167.911 147.618 170.022 145.353 187.615C143.087 205.207 135.537 263.614 155.169 265.725C174.801 267.836 201.228 262.91 201.228 262.91C201.228 262.91 206.514 236.17 201.228 236.17C195.943 236.17 168.76 239.688 169.515 236.17C170.27 232.651 183.862 174.244 162.719 169.319Z" fill="#353685"/>
<path d="M255.217 248.485L263.543 236.591L268.808 256.225L255.217 261.855V248.485Z" fill="#353685"/>
<path d="M84.1711 78.8937C95.4306 78.8937 104.558 70.3872 104.558 59.8939C104.558 49.4007 95.4306 40.8942 84.1711 40.8942C72.9116 40.8942 63.7839 49.4007 63.7839 59.8939C63.7839 70.3872 72.9116 78.8937 84.1711 78.8937Z" fill="#F2F2F2"/>
<path d="M108.334 201.337H60.0085V246.373H108.334V201.337Z" fill="#F2F2F2"/>
<path d="M280.889 0L293.121 19.7436L305.352 39.4872H280.889H256.427L268.658 19.7436L280.889 0Z" fill="#F2F2F2"/>
<path d="M494 118.382C493.708 126.805 491.507 133.557 487.397 138.637C483.286 143.717 478.403 146.258 472.747 146.258C468.14 146.258 464.102 143.772 460.634 138.8C457.164 133.828 455.429 126.18 455.43 115.855C455.43 113.573 455.488 111.399 455.605 109.334C455.721 107.27 455.867 105.314 456.042 103.466L459.103 76.6494H438.9C435.402 110.557 432.53 130.73 430.285 137.17C428.04 143.609 424.235 146.828 418.871 146.829C416.45 146.773 414.14 145.871 412.399 144.302C411.39 143.468 410.592 142.436 410.062 141.281C409.533 140.125 409.286 138.874 409.338 137.618C409.338 135.119 411.452 131.628 415.679 127.144C419.906 122.661 422.253 118.572 422.72 114.877L427.967 76.6494H419.484C417.092 76.6627 414.738 77.2076 412.618 78.2387C410.666 79.0741 408.968 80.3485 407.676 81.9474L403.916 87.164H400.854C403.711 78.9048 407.224 72.6966 411.393 68.5392C415.562 64.3822 420.357 62.3037 425.781 62.3038H492.601V76.6494H470.036C469.336 83.1701 468.797 89.6908 468.418 96.2114C468.038 102.732 467.849 109.28 467.849 115.855C467.849 120.311 468.957 123.925 471.173 126.696C473.388 129.467 476.158 130.853 479.482 130.853C481.522 130.853 483.665 130.078 485.91 128.53C486.976 127.833 487.868 126.929 488.525 125.881C489.181 124.833 489.587 123.665 489.715 122.457C489.889 121.263 490.021 120.325 490.108 119.645C490.195 118.966 490.239 118.545 490.239 118.382L494 118.382Z" fill="#66D06D"/>
<path opacity="0.1" d="M494 118.382C493.708 126.805 491.507 133.557 487.397 138.637C483.286 143.717 478.403 146.258 472.747 146.258C468.14 146.258 464.102 143.772 460.634 138.8C457.164 133.828 455.429 126.18 455.43 115.855C455.43 113.573 455.488 111.399 455.605 109.334C455.721 107.27 455.867 105.314 456.042 103.466L459.103 76.6494H438.9C435.402 110.557 432.53 130.73 430.285 137.17C428.04 143.609 424.235 146.828 418.871 146.829C416.45 146.773 414.14 145.871 412.399 144.302C411.39 143.468 410.592 142.436 410.062 141.281C409.533 140.125 409.286 138.874 409.338 137.618C409.338 135.119 411.452 131.628 415.679 127.144C419.906 122.661 422.253 118.572 422.72 114.877L427.967 76.6494H419.484C417.092 76.6627 414.738 77.2076 412.618 78.2387C410.666 79.0741 408.968 80.3485 407.676 81.9474L403.916 87.164H400.854C403.711 78.9048 407.224 72.6966 411.393 68.5392C415.562 64.3822 420.357 62.3037 425.781 62.3038H492.601V76.6494H470.036C469.336 83.1701 468.797 89.6908 468.418 96.2114C468.038 102.732 467.849 109.28 467.849 115.855C467.849 120.311 468.957 123.925 471.173 126.696C473.388 129.467 476.158 130.853 479.482 130.853C481.522 130.853 483.665 130.078 485.91 128.53C486.976 127.833 487.868 126.929 488.525 125.881C489.181 124.833 489.587 123.665 489.715 122.457C489.889 121.263 490.021 120.325 490.108 119.645C490.195 118.966 490.239 118.545 490.239 118.382L494 118.382Z" fill="black"/>
<path d="M494 115.835C493.708 124.259 491.507 131.01 487.397 136.09C483.286 141.17 478.403 143.711 472.747 143.711C468.14 143.711 464.102 141.225 460.634 136.253C457.164 131.281 455.429 123.633 455.43 113.308C455.43 111.026 455.488 108.853 455.605 106.788C455.721 104.723 455.867 102.767 456.042 100.919L459.103 74.1027H438.9C435.402 108.01 432.53 128.184 430.285 134.623C428.04 141.062 424.235 144.282 418.871 144.282C416.45 144.226 414.14 143.324 412.399 141.755C411.39 140.922 410.592 139.89 410.062 138.734C409.533 137.578 409.286 136.327 409.338 135.071C409.338 132.573 411.452 129.081 415.679 124.597C419.906 120.114 422.253 116.025 422.72 112.33L427.967 74.1027H419.484C417.092 74.116 414.738 74.6609 412.618 75.692C410.666 76.5274 408.968 77.8018 407.676 79.4007L403.916 84.6173H400.854C403.711 76.3581 407.224 70.1499 411.393 65.9925C415.562 61.8355 420.357 59.757 425.781 59.7571H492.601V74.1027H470.036C469.336 80.6234 468.797 87.1441 468.418 93.6647C468.038 100.185 467.849 106.733 467.849 113.308C467.849 117.765 468.957 121.378 471.173 124.149C473.388 126.921 476.158 128.306 479.482 128.306C481.522 128.306 483.665 127.532 485.91 125.983C486.976 125.286 487.868 124.383 488.525 123.335C489.181 122.286 489.587 121.119 489.715 119.911C489.889 118.716 490.021 117.779 490.108 117.099C490.195 116.42 490.239 115.999 490.239 115.835H494Z" fill="#66D06D"/>
</svg>
