<svg width="28" height="25" viewBox="0 0 28 25" fill="none" xmlns="http://www.w3.org/2000/svg">
<path d="M23.8573 21.3015H19.7086V15.5005C19.7086 14.1172 19.6809 12.3364 17.5509 12.3364C15.39 12.3364 15.0594 13.8436 15.0594 15.3998V21.3011H10.9108V9.37184H14.8935V11.0021H14.9493C15.3478 10.3936 15.9238 9.89304 16.6158 9.55369C17.3078 9.21434 18.0899 9.04892 18.8789 9.07506C23.0838 9.07506 23.8591 11.5446 23.8591 14.7573L23.8573 21.3015ZM6.22956 7.74127C4.89989 7.74147 3.82178 6.77916 3.82156 5.59196C3.82134 4.40475 4.89902 3.44215 6.22869 3.44196C7.55836 3.44166 8.63647 4.40397 8.63669 5.59118C8.6368 6.1613 8.38326 6.70811 7.93184 7.11133C7.48042 7.51455 6.8681 7.74114 6.22956 7.74127ZM8.30397 21.3016H4.15089V9.37184H8.30386V21.3015L8.30397 21.3016ZM25.9256 0.00181952H2.0662C0.938547 -0.0095086 0.0137813 0.797034 0 1.80387V23.1958C0.0133438 24.2031 0.938 25.0104 2.06609 24.9999H25.9256C27.0561 25.0124 27.9844 24.205 28 23.1958V1.80221C27.9839 0.793421 27.0555 -0.0130242 25.9256 0.000159364" fill="#FFFCFC"/>
</svg>
