<svg width="81" height="98" viewBox="0 0 81 98" fill="none" xmlns="http://www.w3.org/2000/svg">
<path d="M3.0352 52.8831L13.9541 1.5711C14.3315 -0.178844 17.5324 -0.592283 18.6622 0.972035L30.398 17.0793L3.0352 52.8831ZM81 64.8003L70.2445 18.0918C70.1665 17.7579 69.9654 17.4461 69.663 17.19C69.3606 16.934 68.9684 16.7435 68.529 16.6392C68.0895 16.5349 67.6195 16.5208 67.1699 16.5983C66.7202 16.6759 66.3081 16.8422 65.9782 17.0793L0 64.8003L36.6709 80.3102C37.7962 80.7627 39.0589 81 40.3424 81C41.6258 81 42.8885 80.7627 44.0138 80.3102L81 64.8003ZM51.1681 24.1196L42.7597 12.3846C42.5506 12.0832 42.2319 11.83 41.8387 11.6532C41.4456 11.4764 40.9934 11.3828 40.5322 11.3828C40.071 11.3828 39.6188 11.4764 39.2257 11.6532C38.8325 11.83 38.5138 12.0832 38.3047 12.3846L1.34156 60.7064L51.1681 24.1196Z" fill="#353685"/>
<path d="M16.5529 91.15V92.9H18.9029V94.01H16.5529V95.86H19.2029V97H15.1529V90.01H19.2029V91.15H16.5529ZM20.1152 94.21C20.1152 93.65 20.2252 93.1533 20.4452 92.72C20.6718 92.2867 20.9785 91.9533 21.3652 91.72C21.7518 91.4867 22.1818 91.37 22.6552 91.37C23.0152 91.37 23.3585 91.45 23.6852 91.61C24.0118 91.7633 24.2718 91.97 24.4652 92.23V89.6H25.8852V97H24.4652V96.18C24.2918 96.4533 24.0485 96.6733 23.7352 96.84C23.4218 97.0067 23.0585 97.09 22.6452 97.09C22.1785 97.09 21.7518 96.97 21.3652 96.73C20.9785 96.49 20.6718 96.1533 20.4452 95.72C20.2252 95.28 20.1152 94.7767 20.1152 94.21ZM24.4752 94.23C24.4752 93.89 24.4085 93.6 24.2752 93.36C24.1418 93.1133 23.9618 92.9267 23.7352 92.8C23.5085 92.6667 23.2652 92.6 23.0052 92.6C22.7452 92.6 22.5052 92.6633 22.2852 92.79C22.0652 92.9167 21.8852 93.1033 21.7452 93.35C21.6118 93.59 21.5452 93.8767 21.5452 94.21C21.5452 94.5433 21.6118 94.8367 21.7452 95.09C21.8852 95.3367 22.0652 95.5267 22.2852 95.66C22.5118 95.7933 22.7518 95.86 23.0052 95.86C23.2652 95.86 23.5085 95.7967 23.7352 95.67C23.9618 95.5367 24.1418 95.35 24.2752 95.11C24.4085 94.8633 24.4752 94.57 24.4752 94.23ZM32.4825 91.46V97H31.0725V96.3C30.8925 96.54 30.6558 96.73 30.3625 96.87C30.0758 97.0033 29.7625 97.07 29.4225 97.07C28.9892 97.07 28.6058 96.98 28.2725 96.8C27.9392 96.6133 27.6758 96.3433 27.4825 95.99C27.2958 95.63 27.2025 95.2033 27.2025 94.71V91.46H28.6025V94.51C28.6025 94.95 28.7125 95.29 28.9325 95.53C29.1525 95.7633 29.4525 95.88 29.8325 95.88C30.2192 95.88 30.5225 95.7633 30.7425 95.53C30.9625 95.29 31.0725 94.95 31.0725 94.51V91.46H32.4825ZM33.5038 94.23C33.5038 93.6567 33.6205 93.1567 33.8538 92.73C34.0872 92.2967 34.4105 91.9633 34.8238 91.73C35.2372 91.49 35.7105 91.37 36.2438 91.37C36.9305 91.37 37.4972 91.5433 37.9438 91.89C38.3972 92.23 38.7005 92.71 38.8538 93.33H37.3438C37.2638 93.09 37.1272 92.9033 36.9338 92.77C36.7472 92.63 36.5138 92.56 36.2338 92.56C35.8338 92.56 35.5172 92.7067 35.2838 93C35.0505 93.2867 34.9338 93.6967 34.9338 94.23C34.9338 94.7567 35.0505 95.1667 35.2838 95.46C35.5172 95.7467 35.8338 95.89 36.2338 95.89C36.8005 95.89 37.1705 95.6367 37.3438 95.13H38.8538C38.7005 95.73 38.3972 96.2067 37.9438 96.56C37.4905 96.9133 36.9238 97.09 36.2438 97.09C35.7105 97.09 35.2372 96.9733 34.8238 96.74C34.4105 96.5 34.0872 96.1667 33.8538 95.74C33.6205 95.3067 33.5038 94.8033 33.5038 94.23ZM39.5195 94.21C39.5195 93.65 39.6295 93.1533 39.8495 92.72C40.0761 92.2867 40.3795 91.9533 40.7595 91.72C41.1461 91.4867 41.5761 91.37 42.0495 91.37C42.4628 91.37 42.8228 91.4533 43.1295 91.62C43.4428 91.7867 43.6928 91.9967 43.8795 92.25V91.46H45.2895V97H43.8795V96.19C43.6995 96.45 43.4495 96.6667 43.1295 96.84C42.8161 97.0067 42.4528 97.09 42.0395 97.09C41.5728 97.09 41.1461 96.97 40.7595 96.73C40.3795 96.49 40.0761 96.1533 39.8495 95.72C39.6295 95.28 39.5195 94.7767 39.5195 94.21ZM43.8795 94.23C43.8795 93.89 43.8128 93.6 43.6795 93.36C43.5461 93.1133 43.3661 92.9267 43.1395 92.8C42.9128 92.6667 42.6695 92.6 42.4095 92.6C42.1495 92.6 41.9095 92.6633 41.6895 92.79C41.4695 92.9167 41.2895 93.1033 41.1495 93.35C41.0161 93.59 40.9495 93.8767 40.9495 94.21C40.9495 94.5433 41.0161 94.8367 41.1495 95.09C41.2895 95.3367 41.4695 95.5267 41.6895 95.66C41.9161 95.7933 42.1561 95.86 42.4095 95.86C42.6695 95.86 42.9128 95.7967 43.1395 95.67C43.3661 95.5367 43.5461 95.35 43.6795 95.11C43.8128 94.8633 43.8795 94.57 43.8795 94.23ZM51.4068 90.02V91.15H49.5468V97H48.1468V91.15H46.2868V90.02H51.4068ZM57.5783 94.11C57.5783 94.31 57.5649 94.49 57.5383 94.65H53.4883C53.5216 95.05 53.6616 95.3633 53.9083 95.59C54.1549 95.8167 54.4583 95.93 54.8183 95.93C55.3383 95.93 55.7083 95.7067 55.9283 95.26H57.4383C57.2783 95.7933 56.9716 96.2333 56.5183 96.58C56.0649 96.92 55.5083 97.09 54.8483 97.09C54.3149 97.09 53.8349 96.9733 53.4083 96.74C52.9883 96.5 52.6583 96.1633 52.4183 95.73C52.1849 95.2967 52.0683 94.7967 52.0683 94.23C52.0683 93.6567 52.1849 93.1533 52.4183 92.72C52.6516 92.2867 52.9783 91.9533 53.3983 91.72C53.8183 91.4867 54.3016 91.37 54.8483 91.37C55.3749 91.37 55.8449 91.4833 56.2583 91.71C56.6783 91.9367 57.0016 92.26 57.2283 92.68C57.4616 93.0933 57.5783 93.57 57.5783 94.11ZM56.1283 93.71C56.1216 93.35 55.9916 93.0633 55.7383 92.85C55.4849 92.63 55.1749 92.52 54.8083 92.52C54.4616 92.52 54.1683 92.6267 53.9283 92.84C53.6949 93.0467 53.5516 93.3367 53.4983 93.71H56.1283ZM58.2402 94.23C58.2402 93.6567 58.3568 93.1567 58.5902 92.73C58.8235 92.2967 59.1468 91.9633 59.5602 91.73C59.9735 91.49 60.4468 91.37 60.9802 91.37C61.6668 91.37 62.2335 91.5433 62.6802 91.89C63.1335 92.23 63.4368 92.71 63.5902 93.33H62.0802C62.0002 93.09 61.8635 92.9033 61.6702 92.77C61.4835 92.63 61.2502 92.56 60.9702 92.56C60.5702 92.56 60.2535 92.7067 60.0202 93C59.7868 93.2867 59.6702 93.6967 59.6702 94.23C59.6702 94.7567 59.7868 95.1667 60.0202 95.46C60.2535 95.7467 60.5702 95.89 60.9702 95.89C61.5368 95.89 61.9068 95.6367 62.0802 95.13H63.5902C63.4368 95.73 63.1335 96.2067 62.6802 96.56C62.2268 96.9133 61.6602 97.09 60.9802 97.09C60.4468 97.09 59.9735 96.9733 59.5602 96.74C59.1468 96.5 58.8235 96.1667 58.5902 95.74C58.3568 95.3067 58.2402 94.8033 58.2402 94.23ZM67.7358 91.38C68.1558 91.38 68.5291 91.4733 68.8558 91.66C69.1824 91.84 69.4358 92.11 69.6158 92.47C69.8024 92.8233 69.8958 93.25 69.8958 93.75V97H68.4958V93.94C68.4958 93.5 68.3858 93.1633 68.1658 92.93C67.9458 92.69 67.6458 92.57 67.2658 92.57C66.8791 92.57 66.5724 92.69 66.3458 92.93C66.1258 93.1633 66.0158 93.5 66.0158 93.94V97H64.6158V89.6H66.0158V92.15C66.1958 91.91 66.4358 91.7233 66.7358 91.59C67.0358 91.45 67.3691 91.38 67.7358 91.38Z" fill="#353685"/>
</svg>