<svg width="34" height="31" viewBox="0 0 34 31" fill="none" xmlns="http://www.w3.org/2000/svg">
<path d="M1.27403 20.2392L5.85727 0.601285C6.01568 -0.0684465 7.35926 -0.226676 7.83352 0.372014L12.7597 6.53652L1.27403 20.2392ZM34 24.8001L29.4853 6.92402C29.4526 6.79624 29.3682 6.67689 29.2413 6.5789C29.1143 6.4809 28.9497 6.408 28.7652 6.36808C28.5808 6.32817 28.3835 6.32276 28.1948 6.35245C28.006 6.38214 27.833 6.44579 27.6945 6.53652L0 24.8001L15.3927 30.736C15.8651 30.9092 16.3951 31 16.9338 31C17.4726 31 18.0026 30.9092 18.4749 30.736L34 24.8001ZM21.478 9.23094L17.9485 4.7398C17.8608 4.62443 17.727 4.52754 17.5619 4.45987C17.3969 4.3922 17.2071 4.35638 17.0135 4.35638C16.8199 4.35638 16.6301 4.3922 16.4651 4.45987C16.3001 4.52754 16.1663 4.62443 16.0785 4.7398L0.563125 23.2333L21.478 9.23094Z" fill="#353685"/>
</svg>
