<svg width="17" height="24" viewBox="0 0 17 24" fill="none" xmlns="http://www.w3.org/2000/svg">
<path d="M4.51103 0.127725C5.1203 -0.0701916 5.77411 -0.0373109 6.36361 0.220893C6.95312 0.479098 7.44276 0.947048 7.75103 1.54685L7.85546 1.77037L8.7758 3.97706C9.05554 4.64684 9.14634 5.39045 9.03692 6.11539C8.9275 6.84034 8.62268 7.51463 8.16038 8.05441L7.97659 8.25242L6.52298 9.71205C6.26122 9.97907 6.45754 11.0127 7.40573 12.7798C8.25645 14.3699 8.95124 15.1125 9.29097 15.153H9.35084L9.42463 15.138L12.279 14.1974C12.6626 14.0707 13.0719 14.0657 13.4581 14.183C13.8443 14.3003 14.1909 14.535 14.4566 14.859L14.5847 15.0315L16.4727 17.8517C16.8432 18.4044 17.028 19.0764 16.9966 19.7573C16.9652 20.4382 16.7195 21.0872 16.3001 21.5976L16.1302 21.7866L15.3741 22.5577C14.6965 23.2491 13.8488 23.7163 12.9318 23.9038C12.0149 24.0913 11.0672 23.9911 10.2016 23.6152C7.50737 22.4451 5.05962 19.7719 2.83604 15.6226C0.608275 11.4627 -0.317637 7.83689 0.0958907 4.73162C0.221148 3.79277 0.580118 2.90801 1.13466 2.17134C1.68921 1.43467 2.41861 0.873609 3.24539 0.547761L3.51411 0.451753L4.51103 0.127725Z" fill="#FFFCFC"/>
</svg>
