<svg width="27" height="22" viewBox="0 0 27 22" fill="none" xmlns="http://www.w3.org/2000/svg">
<path d="M26.9069 2.51542C25.9174 2.94049 24.8544 3.2277 23.737 3.35752C24.89 2.68866 25.7526 1.63594 26.1639 0.395799C25.0806 1.01961 23.895 1.45871 22.6586 1.694C21.8272 0.833354 20.7259 0.262907 19.5258 0.0712197C18.3257 -0.120468 17.0939 0.0773287 16.0216 0.6339C14.9494 1.19047 14.0966 2.07468 13.5958 3.14924C13.095 4.22381 12.9741 5.42861 13.252 6.57659C11.057 6.46974 8.90966 5.91664 6.94941 4.95316C4.98916 3.98969 3.25978 2.63738 1.8735 0.984008C1.3995 1.77671 1.12695 2.69579 1.12695 3.67461C1.12642 4.55577 1.35024 5.42343 1.77856 6.20061C2.20688 6.97779 2.82644 7.64047 3.58229 8.12983C2.70571 8.10279 1.84847 7.87316 1.08192 7.46005V7.52898C1.08183 8.76485 1.52278 9.96268 2.32995 10.9192C3.13712 11.8758 4.26079 12.5321 5.5103 12.7769C4.69713 12.9903 3.84458 13.0217 3.01704 12.8688C3.36958 13.9322 4.05629 14.8621 4.98104 15.5283C5.90579 16.1945 7.02228 16.5637 8.17421 16.5842C6.21874 18.0724 3.80375 18.8797 1.31773 18.8761C0.87736 18.8763 0.437359 18.8513 0 18.8015C2.52345 20.3744 5.46093 21.2092 8.46098 21.206C18.6165 21.206 24.1683 13.0515 24.1683 5.97919C24.1683 5.74942 24.1624 5.51735 24.1517 5.28759C25.2316 4.53047 26.1638 3.59292 26.9045 2.51887L26.9069 2.51542Z" fill="#FFFCFC"/>
</svg>
